<svg xmlns="http://www.w3.org/2000/svg">
    <symbol id="logo" viewBox="0 0 250 89">
        <g>
            <path d="M44.6686 89C69.3384 89 89.3372 69.0767 89.3372 44.5C89.3372 19.9233 69.3384 0 44.6686 0C19.9988 0 0 19.9233 0 44.5C0 69.0767 19.9988 89 44.6686 89Z" fill="#F2EDE7"/>
            <path d="M66.7329 51.919L61.2394 36.8689L55.7459 51.919H66.7329ZM67.4758 53.9377H55.0029L49.9822 67.6869H47.8208L61.2394 30.97L74.6356 67.6869H72.4966L67.4758 53.9377Z" fill="#332F2C"/>
            <path d="M27.094 19.5981C28.9403 19.5981 30.5162 20.2486 31.8221 21.5495C33.143 22.8504 33.8034 24.4205 33.8034 26.2597C33.8034 28.1139 32.8502 29.8409 30.944 31.4409C32.6251 31.7848 34.2086 32.7717 35.6946 34.4016C38.0961 36.809 39.2969 39.7173 39.2969 43.1266C39.2969 46.5209 38.0961 49.4592 35.6946 51.9414C33.4582 54.2441 30.7864 55.4179 27.6795 55.4628V55.4852H20.7V19.5981H27.094ZM22.7263 32.9437V53.4666H27.6795V53.4891C30.186 53.3246 32.3474 52.3003 34.1636 50.4162C36.1599 48.3676 37.158 45.9378 37.158 43.1266C37.158 40.3155 36.1599 37.9155 34.1636 35.9268C32.1673 33.9381 29.7583 32.9437 26.9365 32.9437H22.7263ZM22.7263 21.6168V30.7905H27.6119C28.7376 30.6857 29.6982 30.2671 30.4938 29.5344C31.4093 28.697 31.8671 27.6054 31.8671 26.2597C31.8671 24.9139 31.4093 23.8074 30.4938 22.9401C29.5782 22.0579 28.4449 21.6168 27.094 21.6168H22.7263Z" fill="#332F2C"/>
            <path d="M40.1902 20.8938H40.6967V25.1329C40.7905 25.0059 40.8975 24.8825 41.0176 24.7629C41.6217 24.161 42.3497 23.8601 43.2015 23.8601C44.057 23.8601 44.785 24.161 45.3854 24.7629C45.9895 25.3648 46.2916 26.0918 46.2916 26.9441C46.2916 27.7927 45.9895 28.5179 45.3854 29.1198C44.785 29.7217 44.057 30.0226 43.2015 30.0226C42.3497 30.0226 41.6217 29.7217 41.0176 29.1198C40.8975 29.0002 40.7905 28.8768 40.6967 28.7497V29.8656H40.1902V20.8938ZM40.6967 26.417V27.4713C40.7943 27.9497 41.0269 28.3722 41.3947 28.7385C41.8938 29.2357 42.496 29.4843 43.2015 29.4843C43.9069 29.4843 44.5092 29.2375 45.0083 28.7441C45.5073 28.2469 45.7568 27.647 45.7568 26.9441C45.7568 26.2413 45.5073 25.6414 45.0083 25.1442C44.5092 24.647 43.9069 24.3984 43.2015 24.3984C42.496 24.3984 41.8938 24.647 41.3947 25.1442C41.0269 25.5105 40.7943 25.9348 40.6967 26.417ZM53.8114 29.8656H53.3048V28.7441C53.2073 28.8749 53.1003 29.0002 52.984 29.1198C52.3798 29.7217 51.65 30.0226 50.7944 30.0226C49.9426 30.0226 49.2147 29.7217 48.6106 29.1198C48.0064 28.5179 47.7044 27.7927 47.7044 26.9441C47.7044 26.0918 48.0064 25.3648 48.6106 24.7629C49.2147 24.161 49.9426 23.8601 50.7944 23.8601C51.65 23.8601 52.3798 24.161 52.984 24.7629C53.1003 24.8825 53.2073 25.0078 53.3048 25.1386V24.3591H53.8114V29.8656ZM53.3048 27.4432V26.4451C53.211 25.9517 52.9765 25.518 52.6012 25.1442C52.1021 24.647 51.4999 24.3984 50.7944 24.3984C50.089 24.3984 49.4867 24.647 48.9877 25.1442C48.4886 25.6414 48.239 26.2413 48.239 26.9441C48.239 27.647 48.4886 28.2469 48.9877 28.7441C49.4867 29.2375 50.089 29.4843 50.7944 29.4843C51.4999 29.4843 52.1021 29.2357 52.6012 28.7385C52.9765 28.3647 53.211 27.9329 53.3048 27.4432ZM57.0197 27.0339C56.5882 26.8021 56.2898 26.6039 56.1248 26.4395C55.8658 26.1815 55.7364 25.8713 55.7364 25.5087C55.7364 25.1423 55.8658 24.8302 56.1248 24.5722C56.3836 24.3105 56.6951 24.1797 57.0591 24.1797C57.4269 24.1797 57.7307 24.2993 57.9709 24.5386C58.2036 24.7741 58.3199 25.0413 58.3199 25.3404V25.3685L57.8809 25.5423C57.8434 25.2582 57.7533 25.0451 57.6107 24.903C57.4719 24.761 57.288 24.69 57.0591 24.69C56.8339 24.69 56.6407 24.7703 56.4794 24.9311C56.318 25.0881 56.2373 25.2806 56.2373 25.5087C56.2373 25.733 56.318 25.9255 56.4794 26.0862C56.5732 26.1797 56.772 26.3217 57.076 26.5124C57.5562 26.774 57.8978 27.0058 58.1004 27.2077C58.4194 27.5292 58.5788 27.9123 58.5788 28.3572C58.5788 28.8133 58.4194 29.202 58.1004 29.5235C57.7814 29.8412 57.3949 30.0001 56.9409 30.0001C56.4869 30.0001 56.1003 29.8412 55.7814 29.5235C55.4624 29.202 55.3029 28.8506 55.3029 28.4693L55.8039 28.3404C55.8039 28.6693 55.9146 28.9441 56.136 29.1646C56.3612 29.3852 56.6294 29.4955 56.9409 29.4955C57.2524 29.4955 57.5188 29.3852 57.7402 29.1646C57.9653 28.9441 58.0779 28.6749 58.0779 28.3572C58.0779 28.0469 57.9672 27.7815 57.7458 27.561C57.6257 27.4413 57.3837 27.2656 57.0197 27.0339ZM62.7102 24.3591L61.3481 26.0414L63.5207 29.8656H62.8903L61.016 26.4451L60.5207 27.0563V29.8656H60.0141V22.0153H60.5207V26.2488L62.0573 24.3591H62.7102ZM65.502 28.8338C65.9785 29.2675 66.5452 29.4843 67.2019 29.4843C67.9073 29.4843 68.5096 29.2357 69.0086 28.7385C69.0724 28.6749 69.1324 28.6095 69.1887 28.5422L69.7235 28.7329C69.6258 28.8675 69.5152 28.9965 69.3913 29.1198C68.7872 29.7217 68.0574 30.0226 67.2019 30.0226C66.3501 30.0226 65.6221 29.7217 65.0179 29.1198C64.4138 28.5179 64.1117 27.7909 64.1117 26.9386C64.1117 26.09 64.4138 25.3648 65.0179 24.7629C65.6221 24.161 66.3501 23.8601 67.2019 23.8601C67.9336 23.8601 68.5733 24.0788 69.1212 24.5162C69.2112 24.5909 69.3013 24.6731 69.3913 24.7629C69.4251 24.7965 69.457 24.8302 69.487 24.8638L69.1043 25.2451L65.502 28.8338ZM68.7328 24.903C68.2938 24.5666 67.7835 24.3984 67.2019 24.3984C66.5001 24.3984 65.8998 24.647 65.4007 25.1442C64.9016 25.6376 64.6521 26.2357 64.6521 26.9386C64.6521 27.518 64.8209 28.0264 65.1586 28.4638L68.7328 24.903ZM71.8679 24.3591V22.0153H72.3745V24.3591H73.5004V24.8638H72.3745V29.8656H71.8679V24.8638H70.7422V24.3591H71.8679ZM76.3707 27.0339C75.9392 26.8021 75.6409 26.6039 75.4759 26.4395C75.2173 26.1815 75.0876 25.8713 75.0876 25.5087C75.0876 25.1423 75.2173 24.8302 75.4759 24.5722C75.7346 24.3105 76.0465 24.1797 76.4104 24.1797C76.7778 24.1797 77.0818 24.2993 77.3217 24.5386C77.5545 24.7741 77.6712 25.0413 77.6712 25.3404V25.3685L77.2317 25.5423C77.1942 25.2582 77.1042 25.0451 76.9615 24.903C76.8232 24.761 76.6395 24.69 76.4104 24.69C76.1849 24.69 75.9918 24.7703 75.8304 24.9311C75.669 25.0881 75.5883 25.2806 75.5883 25.5087C75.5883 25.733 75.669 25.9255 75.8304 26.0862C75.924 26.1797 76.1229 26.3217 76.4269 26.5124C76.9075 26.774 77.249 27.0058 77.4514 27.2077C77.7706 27.5292 77.9298 27.9123 77.9298 28.3572C77.9298 28.8133 77.7706 29.202 77.4514 29.5235C77.1323 29.8412 76.7461 30.0001 76.2922 30.0001C75.8383 30.0001 75.4514 29.8412 75.1323 29.5235C74.8138 29.202 74.6539 28.8506 74.6539 28.4693L75.1553 28.3404C75.1553 28.6693 75.2655 28.9441 75.4874 29.1646C75.7122 29.3852 75.9802 29.4955 76.2922 29.4955C76.6034 29.4955 76.87 29.3852 77.0912 29.1646C77.3167 28.9441 77.4291 28.6749 77.4291 28.3572C77.4291 28.0469 77.3181 27.7815 77.097 27.561C76.9766 27.4413 76.7346 27.2656 76.3707 27.0339Z" fill="#332F2C"/>
            <path d="M20.7133 67.6869H20.2067V66.5654C20.1092 66.6962 20.0022 66.8215 19.8859 66.9411C19.2817 67.543 18.5519 67.8439 17.6963 67.8439C16.8445 67.8439 16.1166 67.543 15.5124 66.9411C14.9083 66.3392 14.6062 65.614 14.6062 64.7654C14.6062 63.9131 14.9083 63.186 15.5124 62.5841C16.1166 61.9823 16.8445 61.6814 17.6963 61.6814C18.5519 61.6814 19.2817 61.9823 19.8859 62.5841C20.0022 62.7038 20.1092 62.829 20.2067 62.9599V62.1804H20.7133V67.6869ZM20.2067 65.2645V64.2664C20.1129 63.7729 19.8783 63.3393 19.5031 62.9655C19.004 62.4683 18.4018 62.2197 17.6963 62.2197C16.9909 62.2197 16.3886 62.4683 15.8896 62.9655C15.3905 63.4627 15.1409 64.0626 15.1409 64.7654C15.1409 65.4683 15.3905 66.0682 15.8896 66.5654C16.3886 67.0588 16.9909 67.3056 17.6963 67.3056C18.4018 67.3056 19.004 67.057 19.5031 66.5598C19.8783 66.186 20.1129 65.7542 20.2067 65.2645ZM23.2236 62.1804V59.8366H23.7302V62.1804H24.8559V62.6851H23.7302V67.6869H23.2236V62.6851H22.0979V62.1804H23.2236ZM27.2593 66.6551C27.7359 67.0888 28.3025 67.3056 28.9592 67.3056C29.6646 67.3056 30.2669 67.057 30.7659 66.5598C30.8298 66.4962 30.8898 66.4308 30.946 66.3635L31.4808 66.5542C31.3832 66.6888 31.2725 66.8177 31.1487 66.9411C30.5445 67.543 29.8147 67.8439 28.9592 67.8439C28.1074 67.8439 27.3794 67.543 26.7753 66.9411C26.1711 66.3392 25.869 65.6122 25.869 64.7598C25.869 63.9113 26.1711 63.186 26.7753 62.5841C27.3794 61.9823 28.1074 61.6814 28.9592 61.6814C29.6909 61.6814 30.3307 61.9001 30.8785 62.3375C30.9686 62.4122 31.0587 62.4944 31.1487 62.5841C31.1824 62.6178 31.2143 62.6515 31.2444 62.6851L30.8616 63.0664L27.2593 66.6551ZM30.4901 62.7243C30.0511 62.3879 29.5408 62.2197 28.9592 62.2197C28.2575 62.2197 27.6571 62.4683 27.158 62.9655C26.6589 63.4589 26.4094 64.057 26.4094 64.7598C26.4094 65.3393 26.5782 65.8476 26.916 66.285L30.4901 62.7243ZM33.3438 58.7151V67.6869H32.8373V58.7151H33.3438ZM35.6516 62.1804V67.6869H35.145V62.1804H35.6516ZM35.3983 60.2291C35.5371 60.2291 35.6553 60.2777 35.7529 60.3749C35.8542 60.472 35.9048 60.5898 35.9048 60.7281C35.9048 60.8702 35.8542 60.9898 35.7529 61.087C35.6553 61.1842 35.5371 61.2328 35.3983 61.2328C35.2594 61.2328 35.1393 61.1842 35.038 61.087C34.9405 60.9898 34.8917 60.8702 34.8917 60.7281C34.8917 60.5898 34.9405 60.472 35.038 60.3749C35.1393 60.2777 35.2594 60.2291 35.3983 60.2291ZM38.5053 66.6551C38.9818 67.0888 39.5484 67.3056 40.2051 67.3056C40.9106 67.3056 41.5128 67.057 42.0119 66.5598C42.0757 66.4962 42.1357 66.4308 42.192 66.3635L42.7267 66.5542C42.6292 66.6888 42.5184 66.8177 42.3947 66.9411C41.7905 67.543 41.0607 67.8439 40.2051 67.8439C39.3533 67.8439 38.6254 67.543 38.0212 66.9411C37.4171 66.3392 37.115 65.6122 37.115 64.7598C37.115 63.9113 37.4171 63.186 38.0212 62.5841C38.6254 61.9823 39.3533 61.6814 40.2051 61.6814C40.9368 61.6814 41.5766 61.9001 42.1245 62.3375C42.2146 62.4122 42.3046 62.4944 42.3947 62.5841C42.4284 62.6178 42.4603 62.6515 42.4904 62.6851L42.1076 63.0664L38.5053 66.6551ZM41.7361 62.7243C41.297 62.3879 40.7867 62.2197 40.2051 62.2197C39.5034 62.2197 38.903 62.4683 38.404 62.9655C37.9049 63.4589 37.6553 64.057 37.6553 64.7598C37.6553 65.3393 37.8242 65.8476 38.162 66.285L41.7361 62.7243ZM44.0832 62.1804H44.5898V63.1842C44.6949 63.0346 44.8168 62.8907 44.9556 62.7524C45.4022 62.3075 45.8599 62.0739 46.329 62.0514V62.601C46.0101 62.6159 45.6798 62.7935 45.3384 63.1336C44.8581 63.6084 44.6086 64.1785 44.5898 64.844V67.6869H44.0832V62.1804Z" fill="#332F2C"/>
            <path d="M107.641 0C109.488 0 111.063 0.650454 112.369 1.95136C113.69 3.25227 114.351 4.82233 114.351 6.66154C114.351 8.51572 113.398 10.2428 111.491 11.8427C113.172 12.1867 114.756 13.1736 116.242 14.8034C118.643 17.2109 119.844 20.1192 119.844 23.5284C119.844 26.9228 118.643 29.8611 116.242 32.3432C114.006 34.646 111.333 35.8198 108.227 35.8647V35.8871H101.247V0H107.641ZM103.274 13.3455V33.8684H108.227V33.8909C110.733 33.7264 112.895 32.7021 114.711 30.818C116.707 28.7695 117.705 26.3396 117.705 23.5284C117.705 20.7173 116.707 18.3173 114.711 16.3286C112.715 14.3399 110.305 13.3455 107.484 13.3455H103.274ZM103.274 2.01865V11.1923H108.159C109.285 11.0876 110.246 10.6689 111.041 9.93628C111.957 9.09889 112.414 8.00727 112.414 6.66154C112.414 5.31578 111.957 4.20925 111.041 3.34199C110.125 2.45976 108.992 2.01865 107.641 2.01865H103.274ZM149.113 35.8871H147.086V31.4012C146.697 31.9246 146.269 32.4255 145.803 32.904C143.387 35.3114 140.467 36.5151 137.045 36.5151C133.638 36.5151 130.726 35.3114 128.31 32.904C125.893 30.4966 124.684 27.5957 124.684 24.2014C124.684 20.7921 125.893 17.8838 128.31 15.4763C130.726 13.0689 133.638 11.8651 137.045 11.8651C140.467 11.8651 143.387 13.0689 145.803 15.4763C146.269 15.9548 146.697 16.4557 147.086 16.979V13.8614H149.113V35.8871ZM147.086 26.1976V22.2051C146.711 20.2313 145.773 18.4968 144.272 17.0015C142.276 15.0128 139.867 14.0184 137.045 14.0184C134.223 14.0184 131.814 15.0128 129.818 17.0015C127.822 18.9902 126.823 21.3902 126.823 24.2014C126.823 27.0125 127.822 29.4125 129.818 31.4012C131.814 33.375 134.223 34.3619 137.045 34.3619C139.867 34.3619 142.276 33.3675 144.272 31.3788C145.773 29.8835 146.711 28.1564 147.086 26.1976ZM161.946 24.5603C160.22 23.6332 159.027 22.8406 158.366 22.1827C157.331 21.151 156.813 19.9099 156.813 18.4595C156.813 16.994 157.331 15.7455 158.366 14.7137C159.402 13.667 160.648 13.1436 162.104 13.1436C163.575 13.1436 164.79 13.6222 165.751 14.5791C166.681 15.5212 167.147 16.5903 167.147 17.7865V17.8987L165.39 18.594C165.241 17.4576 164.88 16.6052 164.31 16.0371C163.755 15.4688 163.019 15.1847 162.104 15.1847C161.203 15.1847 160.43 15.5062 159.784 16.1492C159.139 16.7772 158.817 17.5473 158.817 18.4595C158.817 19.3566 159.139 20.1267 159.784 20.7697C160.16 21.1435 160.955 21.7117 162.171 22.4743C164.092 23.521 165.458 24.4481 166.269 25.2555C167.545 26.5415 168.183 28.0742 168.183 29.8536C168.183 31.6778 167.545 33.233 166.269 34.5189C164.993 35.7899 163.447 36.4254 161.631 36.4254C159.815 36.4254 158.269 35.7899 156.993 34.5189C155.717 33.233 155.079 31.8274 155.079 30.3022L157.083 29.7863C157.083 31.1021 157.526 32.2012 158.411 33.0835C159.312 33.9656 160.385 34.4068 161.631 34.4068C162.877 34.4068 163.942 33.9656 164.828 33.0835C165.728 32.2012 166.179 31.1246 166.179 29.8536C166.179 28.6125 165.736 27.5508 164.85 26.6686C164.37 26.1901 163.402 25.4873 161.946 24.5603ZM184.708 13.8614L179.259 20.5902L187.95 35.8871H185.429L177.931 22.2051L175.95 24.65V35.8871H173.924V4.48589H175.95V21.4201L182.096 13.8614H184.708ZM195.875 31.7601C197.782 33.4946 200.048 34.3619 202.674 34.3619C205.496 34.3619 207.906 33.3675 209.902 31.3788C210.157 31.1246 210.397 30.8629 210.622 30.5937L212.761 31.3563C212.371 31.8947 211.928 32.4105 211.433 32.904C209.016 35.3114 206.096 36.5151 202.674 36.5151C199.267 36.5151 196.356 35.3114 193.939 32.904C191.522 30.4966 190.314 27.5882 190.314 24.1789C190.314 20.7846 191.522 17.8838 193.939 15.4763C196.356 13.0689 199.267 11.8651 202.674 11.8651C205.601 11.8651 208.161 12.7399 210.352 14.4894C210.712 14.7885 211.073 15.1174 211.433 15.4763C211.568 15.6109 211.695 15.7455 211.815 15.88L210.284 17.4052L195.875 31.7601ZM208.798 16.0371C207.042 14.6913 205.001 14.0184 202.674 14.0184C199.868 14.0184 197.466 15.0128 195.47 17.0015C193.474 18.9753 192.475 21.3678 192.475 24.1789C192.475 26.4967 193.151 28.5302 194.502 30.2797L208.798 16.0371ZM221.339 13.8614V4.48589H223.365V13.8614H227.868V15.88H223.365V35.8871H221.339V15.88H216.836V13.8614H221.339ZM239.351 24.5603C237.625 23.6332 236.431 22.8406 235.771 22.1827C234.735 21.151 234.217 19.9099 234.217 18.4595C234.217 16.994 234.735 15.7455 235.771 14.7137C236.807 13.667 238.052 13.1436 239.509 13.1436C240.979 13.1436 242.195 13.6222 243.156 14.5791C244.086 15.5212 244.552 16.5903 244.552 17.7865V17.8987L242.795 18.594C242.645 17.4576 242.285 16.6052 241.715 16.0371C241.159 15.4688 240.424 15.1847 239.509 15.1847C238.608 15.1847 237.835 15.5062 237.189 16.1492C236.544 16.7772 236.221 17.5473 236.221 18.4595C236.221 19.3566 236.544 20.1267 237.189 20.7697C237.565 21.1435 238.36 21.7117 239.576 22.4743C241.497 23.521 242.863 24.4481 243.674 25.2555C244.949 26.5415 245.587 28.0742 245.587 29.8536C245.587 31.6778 244.949 33.233 243.674 34.5189C242.398 35.7899 240.851 36.4254 239.035 36.4254C237.219 36.4254 235.674 35.7899 234.398 34.5189C233.122 33.233 232.484 31.8274 232.484 30.3022L234.488 29.7863C234.488 31.1021 234.93 32.2012 235.815 33.0835C236.716 33.9656 237.79 34.4068 239.035 34.4068C240.281 34.4068 241.347 33.9656 242.233 33.0835C243.133 32.2012 243.583 31.1246 243.583 29.8536C243.583 28.6125 243.14 27.5508 242.255 26.6686C241.774 26.1901 240.807 25.4873 239.351 24.5603ZM115.949 73.2319L110.455 58.182L104.962 73.2319H115.949ZM116.692 75.2509H104.219L99.1987 89H97.0374L110.455 52.2831L123.851 89H121.713L116.692 75.2509ZM135.604 55.1315V89H133.578V55.1315H124.46V53.1129H144.723V55.1315H135.604ZM167.237 53.1129V55.1315H151.252V70.0472H167.237V72.0656H151.252V86.9817H167.237V89H149.225V53.1129H167.237ZM173.451 89V53.1129H175.477V86.9817H189.436V89H173.451ZM197.316 53.1129V89H195.29V53.1129H197.316ZM222.532 53.1129V55.1315H206.547V70.0472H222.532V72.0656H206.547V86.9817H222.532V89H204.521V53.1129H222.532ZM230.772 55.154V74.5102H236.896C239.568 74.5102 241.85 73.5685 243.741 71.6845C245.647 69.7855 246.6 67.4977 246.6 64.8211C246.6 62.1445 245.647 59.8641 243.741 57.98C241.85 56.096 239.568 55.154 236.896 55.154H230.772ZM237.504 76.5292C237.309 76.5443 237.107 76.5515 236.896 76.5515H230.772V89H228.746V53.1129H238.202C240.949 53.4867 243.283 54.6306 245.204 56.5446C247.501 58.8324 248.649 61.5912 248.649 64.8211C248.649 68.0658 247.501 70.8322 245.204 73.12C243.613 74.7047 241.79 75.744 239.733 76.2378L248.041 89H245.542L237.504 76.5292Z" fill="#332F2C"/>
        </g>
    </symbol>
    <symbol id="atelier" viewBox="0 0 360 48">
        <g>
            <path d="M11.2266 1.5C13.1484 1.5 14.7891 2.17969 16.1484 3.53906C17.5234 4.89844 18.2109 6.53906 18.2109 8.46094C18.2109 10.3984 17.2188 12.2031 15.2344 13.875C16.9844 14.2344 18.6328 15.2656 20.1797 16.9688C22.6797 19.4844 23.9297 22.5234 23.9297 26.0859C23.9297 29.6328 22.6797 32.7031 20.1797 35.2969C17.8516 37.7031 15.0703 38.9297 11.8359 38.9766V39H4.57031V1.5H11.2266ZM6.67969 15.4453V36.8906H11.8359V36.9141C14.4453 36.7422 16.6953 35.6719 18.5859 33.7031C20.6641 31.5625 21.7031 29.0234 21.7031 26.0859C21.7031 23.1484 20.6641 20.6406 18.5859 18.5625C16.5078 16.4844 14 15.4453 11.0625 15.4453H6.67969ZM6.67969 3.60938V13.1953H11.7656C12.9375 13.0859 13.9375 12.6484 14.7656 11.8828C15.7188 11.0078 16.1953 9.86719 16.1953 8.46094C16.1953 7.05469 15.7188 5.89844 14.7656 4.99219C13.8125 4.07031 12.6328 3.60938 11.2266 3.60938H6.67969ZM54.3984 39H52.2891V34.3125C51.8828 34.8594 51.4375 35.3828 50.9531 35.8828C48.4375 38.3984 45.3984 39.6562 41.8359 39.6562C38.2891 39.6562 35.2578 38.3984 32.7422 35.8828C30.2266 33.3672 28.9688 30.3359 28.9688 26.7891C28.9688 23.2266 30.2266 20.1875 32.7422 17.6719C35.2578 15.1562 38.2891 13.8984 41.8359 13.8984C45.3984 13.8984 48.4375 15.1562 50.9531 17.6719C51.4375 18.1719 51.8828 18.6953 52.2891 19.2422V15.9844H54.3984V39ZM52.2891 28.875V24.7031C51.8984 22.6406 50.9219 20.8281 49.3594 19.2656C47.2812 17.1875 44.7734 16.1484 41.8359 16.1484C38.8984 16.1484 36.3906 17.1875 34.3125 19.2656C32.2344 21.3438 31.1953 23.8516 31.1953 26.7891C31.1953 29.7266 32.2344 32.2344 34.3125 34.3125C36.3906 36.375 38.8984 37.4062 41.8359 37.4062C44.7734 37.4062 47.2812 36.3672 49.3594 34.2891C50.9219 32.7266 51.8984 30.9219 52.2891 28.875ZM67.7578 27.1641C65.9609 26.1953 64.7188 25.3672 64.0312 24.6797C62.9531 23.6016 62.4141 22.3047 62.4141 20.7891C62.4141 19.2578 62.9531 17.9531 64.0312 16.875C65.1094 15.7812 66.4062 15.2344 67.9219 15.2344C69.4531 15.2344 70.7188 15.7344 71.7188 16.7344C72.6875 17.7188 73.1719 18.8359 73.1719 20.0859V20.2031L71.3438 20.9297C71.1875 19.7422 70.8125 18.8516 70.2188 18.2578C69.6406 17.6641 68.875 17.3672 67.9219 17.3672C66.9844 17.3672 66.1797 17.7031 65.5078 18.375C64.8359 19.0312 64.5 19.8359 64.5 20.7891C64.5 21.7266 64.8359 22.5312 65.5078 23.2031C65.8984 23.5938 66.7266 24.1875 67.9922 24.9844C69.9922 26.0781 71.4141 27.0469 72.2578 27.8906C73.5859 29.2344 74.25 30.8359 74.25 32.6953C74.25 34.6016 73.5859 36.2266 72.2578 37.5703C70.9297 38.8984 69.3203 39.5625 67.4297 39.5625C65.5391 39.5625 63.9297 38.8984 62.6016 37.5703C61.2734 36.2266 60.6094 34.7578 60.6094 33.1641L62.6953 32.625C62.6953 34 63.1562 35.1484 64.0781 36.0703C65.0156 36.9922 66.1328 37.4531 67.4297 37.4531C68.7266 37.4531 69.8359 36.9922 70.7578 36.0703C71.6953 35.1484 72.1641 34.0234 72.1641 32.6953C72.1641 31.3984 71.7031 30.2891 70.7812 29.3672C70.2812 28.8672 69.2734 28.1328 67.7578 27.1641ZM91.4531 15.9844L85.7812 23.0156L94.8281 39H92.2031L84.3984 24.7031L82.3359 27.2578V39H80.2266V6.1875H82.3359V23.8828L88.7344 15.9844H91.4531ZM103.078 34.6875C105.062 36.5 107.422 37.4062 110.156 37.4062C113.094 37.4062 115.602 36.3672 117.68 34.2891C117.945 34.0234 118.195 33.75 118.43 33.4688L120.656 34.2656C120.25 34.8281 119.789 35.3672 119.273 35.8828C116.758 38.3984 113.719 39.6562 110.156 39.6562C106.609 39.6562 103.578 38.3984 101.062 35.8828C98.5469 33.3672 97.2891 30.3281 97.2891 26.7656C97.2891 23.2188 98.5469 20.1875 101.062 17.6719C103.578 15.1562 106.609 13.8984 110.156 13.8984C113.203 13.8984 115.867 14.8125 118.148 16.6406C118.523 16.9531 118.898 17.2969 119.273 17.6719C119.414 17.8125 119.547 17.9531 119.672 18.0938L118.078 19.6875L103.078 34.6875ZM116.531 18.2578C114.703 16.8516 112.578 16.1484 110.156 16.1484C107.234 16.1484 104.734 17.1875 102.656 19.2656C100.578 21.3281 99.5391 23.8281 99.5391 26.7656C99.5391 29.1875 100.242 31.3125 101.648 33.1406L116.531 18.2578ZM129.586 15.9844V6.1875H131.695V15.9844H136.383V18.0938H131.695V39H129.586V18.0938H124.898V15.9844H129.586ZM148.336 27.1641C146.539 26.1953 145.297 25.3672 144.609 24.6797C143.531 23.6016 142.992 22.3047 142.992 20.7891C142.992 19.2578 143.531 17.9531 144.609 16.875C145.688 15.7812 146.984 15.2344 148.5 15.2344C150.031 15.2344 151.297 15.7344 152.297 16.7344C153.266 17.7188 153.75 18.8359 153.75 20.0859V20.2031L151.922 20.9297C151.766 19.7422 151.391 18.8516 150.797 18.2578C150.219 17.6641 149.453 17.3672 148.5 17.3672C147.562 17.3672 146.758 17.7031 146.086 18.375C145.414 19.0312 145.078 19.8359 145.078 20.7891C145.078 21.7266 145.414 22.5312 146.086 23.2031C146.477 23.5938 147.305 24.1875 148.57 24.9844C150.57 26.0781 151.992 27.0469 152.836 27.8906C154.164 29.2344 154.828 30.8359 154.828 32.6953C154.828 34.6016 154.164 36.2266 152.836 37.5703C151.508 38.8984 149.898 39.5625 148.008 39.5625C146.117 39.5625 144.508 38.8984 143.18 37.5703C141.852 36.2266 141.188 34.7578 141.188 33.1641L143.273 32.625C143.273 34 143.734 35.1484 144.656 36.0703C145.594 36.9922 146.711 37.4531 148.008 37.4531C149.305 37.4531 150.414 36.9922 151.336 36.0703C152.273 35.1484 152.742 34.0234 152.742 32.6953C152.742 31.3984 152.281 30.2891 151.359 29.3672C150.859 28.8672 149.852 28.1328 148.336 27.1641ZM194.273 22.5234L188.555 6.79688L182.836 22.5234H194.273ZM195.047 24.6328H182.062L176.836 39H174.586L188.555 0.632812L202.5 39H200.273L195.047 24.6328ZM214.734 3.60938V39H212.625V3.60938H203.133V1.5H224.227V3.60938H214.734ZM247.664 1.5V3.60938H231.023V19.1953H247.664V21.3047H231.023V36.8906H247.664V39H228.914V1.5H247.664ZM254.133 39V1.5H256.242V36.8906H270.773V39H254.133ZM278.977 1.5V39H276.867V1.5H278.977ZM305.227 1.5V3.60938H288.586V19.1953H305.227V21.3047H288.586V36.8906H305.227V39H286.477V1.5H305.227ZM313.805 3.63281V23.8594H320.18C322.961 23.8594 325.336 22.875 327.305 20.9062C329.289 18.9219 330.281 16.5312 330.281 13.7344C330.281 10.9375 329.289 8.55469 327.305 6.58594C325.336 4.61719 322.961 3.63281 320.18 3.63281H313.805ZM320.812 25.9688C320.609 25.9844 320.398 25.9922 320.18 25.9922H313.805V39H311.695V1.5H321.539C324.398 1.89063 326.828 3.08594 328.828 5.08594C331.219 7.47656 332.414 10.3594 332.414 13.7344C332.414 17.125 331.219 20.0156 328.828 22.4062C327.172 24.0625 325.273 25.1484 323.133 25.6641L331.781 39H329.18L320.812 25.9688ZM355.992 1.5V3.60938H339.352V19.1953H355.992V21.3047H339.352V36.8906H355.992V39H337.242V1.5H355.992Z" fill="#382F24"/>
        </g>
    </symbol>

    <symbol id="logo2" viewBox="0 0 76 75">
        <g>
            <path d="M37.5216 75C58.2442 75 75.0432 58.2107 75.0432 37.5C75.0432 16.7893 58.2442 0 37.5216 0C16.799 0 0 16.7893 0 37.5C0 58.2107 16.799 75 37.5216 75Z" fill="#F2EDE7"/>
            <path d="M56.0556 43.7518L51.441 31.0691L46.8265 43.7518H56.0556ZM56.6797 45.453H46.2024L41.985 57.0394H40.1694L51.441 26.0981L62.6939 57.0394H60.8971L56.6797 45.453Z" fill="#332F2C"/>
            <path d="M22.759 16.5154C24.3098 16.5154 25.6336 17.0635 26.7306 18.1598C27.8401 19.256 28.3948 20.5792 28.3948 22.129C28.3948 23.6916 27.5942 25.1469 25.993 26.4952C27.4051 26.7851 28.7352 27.6167 29.9835 28.9902C32.0007 31.0189 33.0094 33.4697 33.0094 36.3427C33.0094 39.2031 32.0007 41.6792 29.9835 43.7709C28.1048 45.7114 25.8606 46.7006 23.2508 46.7384V46.7573H17.3879V16.5154H22.759ZM19.0901 27.7616V45.0562H23.2508V45.0751C25.3563 44.9365 27.1718 44.0733 28.6974 42.4856C30.3743 40.7593 31.2127 38.7117 31.2127 36.3427C31.2127 33.9738 30.3743 31.9513 28.6974 30.2755C27.0205 28.5996 24.997 27.7616 22.6266 27.7616H19.0901ZM19.0901 18.2165V25.9471H23.194C24.1396 25.8589 24.9465 25.5061 25.6147 24.8886C26.3838 24.183 26.7683 23.2631 26.7683 22.129C26.7683 20.9949 26.3838 20.0625 25.6147 19.3316C24.8457 18.5882 23.8937 18.2165 22.759 18.2165H19.0901Z" fill="#332F2C"/>
            <path d="M33.7598 17.6072H34.1853V21.1795C34.2641 21.0724 34.3539 20.9684 34.4548 20.8676C34.9623 20.3605 35.5738 20.1069 36.2893 20.1069C37.0079 20.1069 37.6194 20.3605 38.1237 20.8676C38.6312 21.3748 38.8849 21.9875 38.8849 22.7058C38.8849 23.4209 38.6312 24.032 38.1237 24.5392C37.6194 25.0464 37.0079 25.3 36.2893 25.3C35.5738 25.3 34.9623 25.0464 34.4548 24.5392C34.3539 24.4384 34.2641 24.3344 34.1853 24.2273V25.1677H33.7598V17.6072ZM34.1853 22.2616V23.15C34.2672 23.5532 34.4626 23.9092 34.7715 24.2179C35.1908 24.6369 35.6967 24.8464 36.2893 24.8464C36.8818 24.8464 37.3877 24.6384 37.807 24.2226C38.2262 23.8036 38.4357 23.298 38.4357 22.7058C38.4357 22.1135 38.2262 21.6079 37.807 21.189C37.3877 20.77 36.8818 20.5605 36.2893 20.5605C35.6967 20.5605 35.1908 20.77 34.7715 21.189C34.4626 21.4977 34.2672 21.8552 34.1853 22.2616ZM45.2016 25.1677H44.776V24.2226C44.6941 24.3329 44.6042 24.4384 44.5066 24.5392C43.9991 25.0464 43.386 25.3 42.6673 25.3C41.9518 25.3 41.3403 25.0464 40.8329 24.5392C40.3254 24.032 40.0717 23.4209 40.0717 22.7058C40.0717 21.9875 40.3254 21.3748 40.8329 20.8676C41.3403 20.3605 41.9518 20.1069 42.6673 20.1069C43.386 20.1069 43.9991 20.3605 44.5066 20.8676C44.6042 20.9684 44.6941 21.074 44.776 21.1843V20.5274H45.2016V25.1677ZM44.776 23.1263V22.2852C44.6973 21.8694 44.5003 21.504 44.185 21.189C43.7658 20.77 43.2599 20.5605 42.6673 20.5605C42.0748 20.5605 41.5689 20.77 41.1496 21.189C40.7304 21.6079 40.5208 22.1135 40.5208 22.7058C40.5208 23.298 40.7304 23.8036 41.1496 24.2226C41.5689 24.6384 42.0748 24.8464 42.6673 24.8464C43.2599 24.8464 43.7658 24.6369 44.185 24.2179C44.5003 23.9029 44.6973 23.539 44.776 23.1263ZM47.8966 22.7814C47.5341 22.5861 47.2835 22.4191 47.1448 22.2805C46.9273 22.0631 46.8186 21.8017 46.8186 21.4961C46.8186 21.1874 46.9273 20.9244 47.1448 20.707C47.3623 20.4865 47.6239 20.3762 47.9296 20.3762C48.2386 20.3762 48.4938 20.477 48.6956 20.6786C48.891 20.8771 48.9887 21.1023 48.9887 21.3543V21.378L48.62 21.5245C48.5884 21.285 48.5128 21.1055 48.393 20.9857C48.2764 20.866 48.1219 20.8062 47.9296 20.8062C47.7405 20.8062 47.5782 20.8739 47.4427 21.0094C47.3071 21.1417 47.2393 21.304 47.2393 21.4961C47.2393 21.6851 47.3071 21.8473 47.4427 21.9828C47.5215 22.0616 47.6885 22.1813 47.9438 22.3419C48.3473 22.5624 48.6341 22.7577 48.8044 22.9279C49.0723 23.1988 49.2062 23.5217 49.2062 23.8965C49.2062 24.2809 49.0723 24.6085 48.8044 24.8794C48.5364 25.1472 48.2118 25.2811 47.8304 25.2811C47.449 25.2811 47.1243 25.1472 46.8564 24.8794C46.5885 24.6085 46.4545 24.3124 46.4545 23.9911L46.8753 23.8824C46.8753 24.1596 46.9683 24.3911 47.1543 24.577C47.3434 24.7628 47.5687 24.8558 47.8304 24.8558C48.092 24.8558 48.3158 24.7628 48.5018 24.577C48.6908 24.3911 48.7854 24.1643 48.7854 23.8965C48.7854 23.6351 48.6925 23.4115 48.5065 23.2256C48.4056 23.1248 48.2023 22.9767 47.8966 22.7814ZM52.6766 20.5274L51.5324 21.945L53.3574 25.1677H52.8279L51.2534 22.2852L50.8374 22.8003V25.1677H50.4119V18.5522H50.8374V22.1198L52.1281 20.5274H52.6766ZM55.0217 24.2982C55.422 24.6636 55.8979 24.8464 56.4496 24.8464C57.0421 24.8464 57.548 24.6369 57.9673 24.2179C58.0208 24.1643 58.0712 24.1092 58.1185 24.0525L58.5677 24.2132C58.4857 24.3266 58.3928 24.4353 58.2887 24.5392C57.7813 25.0464 57.1682 25.3 56.4496 25.3C55.7341 25.3 55.1226 25.0464 54.6151 24.5392C54.1076 24.032 53.8539 23.4193 53.8539 22.7011C53.8539 21.986 54.1076 21.3748 54.6151 20.8676C55.1226 20.3605 55.7341 20.1069 56.4496 20.1069C57.0642 20.1069 57.6016 20.2911 58.0618 20.6597C58.1374 20.7227 58.2131 20.792 58.2887 20.8676C58.3171 20.896 58.3439 20.9244 58.3691 20.9527L58.0476 21.274L55.0217 24.2982ZM57.7356 20.9857C57.3668 20.7023 56.9381 20.5605 56.4496 20.5605C55.8601 20.5605 55.3558 20.77 54.9366 21.189C54.5174 21.6048 54.3077 22.1088 54.3077 22.7011C54.3077 23.1894 54.4496 23.6178 54.7333 23.9864L57.7356 20.9857ZM60.3691 20.5274V18.5522H60.7946V20.5274H61.7404V20.9527H60.7946V25.1677H60.3691V20.9527H59.4235V20.5274H60.3691ZM64.1514 22.7814C63.7889 22.5861 63.5384 22.4191 63.3998 22.2805C63.1825 22.0631 63.0736 21.8017 63.0736 21.4961C63.0736 21.1874 63.1825 20.9244 63.3998 20.707C63.617 20.4865 63.8791 20.3762 64.1847 20.3762C64.4934 20.3762 64.7487 20.477 64.9503 20.6786C65.1457 20.8771 65.2438 21.1023 65.2438 21.3543V21.378L64.8746 21.5245C64.8432 21.285 64.7675 21.1055 64.6477 20.9857C64.5315 20.866 64.3772 20.8062 64.1847 20.8062C63.9953 20.8062 63.8331 20.8739 63.6975 21.0094C63.562 21.1417 63.4942 21.304 63.4942 21.4961C63.4942 21.6851 63.562 21.8473 63.6975 21.9828C63.7762 22.0616 63.9432 22.1813 64.1986 22.3419C64.6023 22.5624 64.8891 22.7577 65.0592 22.9279C65.3273 23.1988 65.461 23.5217 65.461 23.8965C65.461 24.2809 65.3273 24.6085 65.0592 24.8794C64.7911 25.1472 64.4667 25.2811 64.0855 25.2811C63.7042 25.2811 63.3792 25.1472 63.1111 24.8794C62.8436 24.6085 62.7093 24.3124 62.7093 23.9911L63.1305 23.8824C63.1305 24.1596 63.2231 24.3911 63.4095 24.577C63.5983 24.7628 63.8234 24.8558 64.0855 24.8558C64.3469 24.8558 64.5708 24.7628 64.7566 24.577C64.946 24.3911 65.0404 24.1643 65.0404 23.8965C65.0404 23.6351 64.9472 23.4115 64.7614 23.2256C64.6604 23.1248 64.457 22.9767 64.1514 22.7814Z" fill="#332F2C"/>
            <path d="M17.399 57.0395H16.9735V56.0944C16.8915 56.2047 16.8017 56.3102 16.704 56.411C16.1965 56.9182 15.5834 57.1718 14.8648 57.1718C14.1492 57.1718 13.5378 56.9182 13.0302 56.411C12.5228 55.9038 12.269 55.2927 12.269 54.5776C12.269 53.8594 12.5228 53.2467 13.0302 52.7394C13.5378 52.2323 14.1492 51.9787 14.8648 51.9787C15.5834 51.9787 16.1965 52.2323 16.704 52.7394C16.8017 52.8403 16.8915 52.9458 16.9735 53.0561V52.3992H17.399V57.0395ZM16.9735 54.9982V54.1571C16.8947 53.7412 16.6976 53.3758 16.3824 53.0608C15.9632 52.6418 15.4574 52.4323 14.8648 52.4323C14.2722 52.4323 13.7663 52.6418 13.3471 53.0608C12.9279 53.4798 12.7182 53.9854 12.7182 54.5776C12.7182 55.1699 12.9279 55.6755 13.3471 56.0944C13.7663 56.5103 14.2722 56.7182 14.8648 56.7182C15.4574 56.7182 15.9632 56.5087 16.3824 56.0897C16.6976 55.7747 16.8947 55.4108 16.9735 54.9982ZM19.5077 52.3992V50.4241H19.9332V52.3992H20.8788V52.8245H19.9332V57.0395H19.5077V52.8245H18.5621V52.3992H19.5077ZM22.8976 56.17C23.298 56.5355 23.774 56.7182 24.3255 56.7182C24.9181 56.7182 25.424 56.5087 25.8432 56.0897C25.8968 56.0361 25.9472 55.981 25.9945 55.9243L26.4437 56.085C26.3617 56.1984 26.2687 56.3071 26.1648 56.411C25.6572 56.9182 25.0442 57.1718 24.3255 57.1718C23.61 57.1718 22.9985 56.9182 22.4911 56.411C21.9836 55.9038 21.7298 55.2911 21.7298 54.5729C21.7298 53.8578 21.9836 53.2467 22.4911 52.7394C22.9985 52.2323 23.61 51.9787 24.3255 51.9787C24.9402 51.9787 25.4776 52.163 25.9378 52.5316C26.0135 52.5945 26.0891 52.6638 26.1648 52.7394C26.1931 52.7678 26.2199 52.7962 26.2451 52.8245L25.9236 53.1458L22.8976 56.17ZM25.6115 52.8576C25.2427 52.5741 24.8141 52.4323 24.3255 52.4323C23.7361 52.4323 23.2318 52.6418 22.8126 53.0608C22.3933 53.4766 22.1837 53.9806 22.1837 54.5729C22.1837 55.0612 22.3256 55.4896 22.6093 55.8582L25.6115 52.8576ZM28.0086 49.479V57.0395H27.5831V49.479H28.0086ZM29.9472 52.3992V57.0395H29.5216V52.3992H29.9472ZM29.7344 50.7548C29.851 50.7548 29.9503 50.7958 30.0323 50.8777C30.1173 50.9596 30.1599 51.0588 30.1599 51.1754C30.1599 51.2951 30.1173 51.3959 30.0323 51.4778C29.9503 51.5597 29.851 51.6007 29.7344 51.6007C29.6178 51.6007 29.5169 51.5597 29.4318 51.4778C29.3498 51.3959 29.3089 51.2951 29.3089 51.1754C29.3089 51.0588 29.3498 50.9596 29.4318 50.8777C29.5169 50.7958 29.6178 50.7548 29.7344 50.7548ZM32.3443 56.17C32.7446 56.5355 33.2205 56.7182 33.7721 56.7182C34.3647 56.7182 34.8706 56.5087 35.2898 56.0897C35.3434 56.0361 35.3939 55.981 35.4411 55.9243L35.8903 56.085C35.8083 56.1984 35.7153 56.3071 35.6114 56.411C35.1038 56.9182 34.4908 57.1718 33.7721 57.1718C33.0566 57.1718 32.4451 56.9182 31.9376 56.411C31.4302 55.9038 31.1764 55.2911 31.1764 54.5729C31.1764 53.8578 31.4302 53.2467 31.9376 52.7394C32.4451 52.2323 33.0566 51.9787 33.7721 51.9787C34.3868 51.9787 34.9242 52.163 35.3844 52.5316C35.4601 52.5945 35.5357 52.6638 35.6114 52.7394C35.6397 52.7678 35.6665 52.7962 35.6917 52.8245L35.3702 53.1458L32.3443 56.17ZM35.0582 52.8576C34.6894 52.5741 34.2607 52.4323 33.7721 52.4323C33.1827 52.4323 32.6784 52.6418 32.2592 53.0608C31.84 53.4766 31.6303 53.9806 31.6303 54.5729C31.6303 55.0612 31.7722 55.4896 32.0559 55.8582L35.0582 52.8576ZM37.0297 52.3992H37.4552V53.2451C37.5435 53.119 37.6459 52.9978 37.7626 52.8812C38.1377 52.5063 38.5222 52.3095 38.9162 52.2905V52.7537C38.6483 52.7662 38.3709 52.9159 38.0841 53.2025C37.6806 53.6026 37.471 54.083 37.4552 54.6438V57.0395H37.0297V52.3992Z" fill="#332F2C"/>
        </g>
    </symbol>
</svg>