<svg xmlns="http://www.w3.org/2000/svg">
    <symbol id="profile" viewBox="3 3 27 27">
        <g>
            <path d="M22.0293,30.84619a5.02468,5.02468,0,0,1-2.5752-.71973,6.88981,6.88981,0,0,0-6.8916-.00927,5.08493,5.08493,0,0,1-5.09473.06787c-4.58292-2.74323-1.997-9.58149,1.24791-12.40916,6.52849-5.91629,17.39508-1.71874,18.20319,7.08072A5.05158,5.05158,0,0,1,22.0293,30.84619ZM15.99414,27.1958a8.55073,8.55073,0,0,1,4.501,1.22363,2.90631,2.90631,0,0,0,3.23242-.12451,3.05807,3.05807,0,0,0,1.20505-3.19971A9.00456,9.00456,0,0,0,10.0439,19.27163C7.8664,21.06909,5.32348,26.55241,8.451,28.4434a3.07081,3.07081,0,0,0,3.06948-.03373A8.49382,8.49382,0,0,1,15.99414,27.1958ZM16,12.87256c-7.77515-.14143-7.76617-11.53344,0-11.6709C23.80348,1.35077,23.72343,12.74335,16,12.87256ZM12.123,7.03711a3.87747,3.87747,0,0,0,7.75488-.03069A3.87747,3.87747,0,0,0,12.123,7.03711Z"/>
        </g>
    </symbol>

    <symbol id="orders" viewBox="0 0 24 24">
        <g>
            <path d="m19,0H5C2.243,0,0,2.243,0,5v14c0,2.757,2.243,5,5,5h11.646c1.287,0,2.497-.501,3.407-1.411l2.536-2.536c.897-.896,1.411-2.139,1.411-3.407V5c0-2.757-2.243-5-5-5ZM2,19V5c0-1.654,1.346-3,3-3h14c1.654,0,3,1.346,3,3v10h-4c-1.654,0-3,1.346-3,3v4H5c-1.654,0-3-1.346-3-3Zm16.639,2.175c-.448.448-1.02.725-1.639.802v-3.977c0-.552.449-1,1-1h3.976c-.079.615-.361,1.198-.802,1.639l-2.536,2.536ZM5,6.5c0-.828.672-1.5,1.5-1.5s1.5.672,1.5,1.5-.672,1.5-1.5,1.5-1.5-.672-1.5-1.5Zm3,5.5c0,.828-.672,1.5-1.5,1.5s-1.5-.672-1.5-1.5.672-1.5,1.5-1.5,1.5.672,1.5,1.5Zm0,5.5c0,.828-.672,1.5-1.5,1.5s-1.5-.672-1.5-1.5.672-1.5,1.5-1.5,1.5.672,1.5,1.5Z"/>
        </g>
    </symbol>

    <symbol id="basket" viewBox="0 0 24 24">
        <g>
            <path d="M23.283,9.034A3.008,3.008,0,0,0,20.93,8C19.5-2.6,4.492-2.591,3.07,8A3.018,3.018,0,0,0,.046,11.425l1.059,7.424A6.024,6.024,0,0,0,7.037,24h9.957a6.025,6.025,0,0,0,5.932-5.151l1.059-7.424A3,3,0,0,0,23.283,9.034ZM12,2a7,7,0,0,1,6.911,6H5.089A7,7,0,0,1,12,2Zm6.2,8L14.35,13.857a.5.5,0,0,1-.706,0L9.792,10Zm2.746,8.565A4.018,4.018,0,0,1,16.994,22H7.037a4.018,4.018,0,0,1-3.955-3.435L2.023,11.142A1,1,0,0,1,3.012,10H6.967l5.265,5.271a2.493,2.493,0,0,0,3.531,0L21.026,10a1,1,0,0,1,.982,1.14Z"/>
        </g>
    </symbol>
</svg>