<svg width="250" height="89" viewBox="0 0 250 89" fill="none" xmlns="http://www.w3.org/2000/svg">
<path d="M44.6686 89C69.3384 89 89.3372 69.0767 89.3372 44.5C89.3372 19.9233 69.3384 0 44.6686 0C19.9988 0 0 19.9233 0 44.5C0 69.0767 19.9988 89 44.6686 89Z" fill="#F2EDE7"/>
<path d="M66.7329 51.919L61.2394 36.8689L55.7459 51.919H66.7329ZM67.4758 53.9377H55.0029L49.9822 67.6869H47.8208L61.2394 30.97L74.6356 67.6869H72.4966L67.4758 53.9377Z" fill="#332F2C"/>
<path d="M27.094 19.5981C28.9403 19.5981 30.5162 20.2486 31.8221 21.5495C33.143 22.8504 33.8034 24.4205 33.8034 26.2597C33.8034 28.1139 32.8502 29.8409 30.944 31.4409C32.6251 31.7848 34.2086 32.7717 35.6946 34.4016C38.0961 36.809 39.2969 39.7173 39.2969 43.1266C39.2969 46.5209 38.0961 49.4592 35.6946 51.9414C33.4582 54.2441 30.7864 55.4179 27.6795 55.4628V55.4852H20.7V19.5981H27.094ZM22.7263 32.9437V53.4666H27.6795V53.4891C30.186 53.3246 32.3474 52.3003 34.1636 50.4162C36.1599 48.3676 37.158 45.9378 37.158 43.1266C37.158 40.3155 36.1599 37.9155 34.1636 35.9268C32.1673 33.9381 29.7583 32.9437 26.9365 32.9437H22.7263ZM22.7263 21.6168V30.7905H27.6119C28.7376 30.6857 29.6982 30.2671 30.4938 29.5344C31.4093 28.697 31.8671 27.6054 31.8671 26.2597C31.8671 24.9139 31.4093 23.8074 30.4938 22.9401C29.5782 22.0579 28.4449 21.6168 27.094 21.6168H22.7263Z" fill="#332F2C"/>
<path d="M40.1902 20.8938H40.6967V25.1329C40.7905 25.0059 40.8975 24.8825 41.0176 24.7629C41.6217 24.161 42.3497 23.8601 43.2015 23.8601C44.057 23.8601 44.785 24.161 45.3854 24.7629C45.9895 25.3648 46.2916 26.0918 46.2916 26.9441C46.2916 27.7927 45.9895 28.5179 45.3854 29.1198C44.785 29.7217 44.057 30.0226 43.2015 30.0226C42.3497 30.0226 41.6217 29.7217 41.0176 29.1198C40.8975 29.0002 40.7905 28.8768 40.6967 28.7497V29.8656H40.1902V20.8938ZM40.6967 26.417V27.4713C40.7943 27.9497 41.0269 28.3722 41.3947 28.7385C41.8938 29.2357 42.496 29.4843 43.2015 29.4843C43.9069 29.4843 44.5092 29.2375 45.0083 28.7441C45.5073 28.2469 45.7568 27.647 45.7568 26.9441C45.7568 26.2413 45.5073 25.6414 45.0083 25.1442C44.5092 24.647 43.9069 24.3984 43.2015 24.3984C42.496 24.3984 41.8938 24.647 41.3947 25.1442C41.0269 25.5105 40.7943 25.9348 40.6967 26.417ZM53.8114 29.8656H53.3048V28.7441C53.2073 28.8749 53.1003 29.0002 52.984 29.1198C52.3798 29.7217 51.65 30.0226 50.7944 30.0226C49.9426 30.0226 49.2147 29.7217 48.6106 29.1198C48.0064 28.5179 47.7044 27.7927 47.7044 26.9441C47.7044 26.0918 48.0064 25.3648 48.6106 24.7629C49.2147 24.161 49.9426 23.8601 50.7944 23.8601C51.65 23.8601 52.3798 24.161 52.984 24.7629C53.1003 24.8825 53.2073 25.0078 53.3048 25.1386V24.3591H53.8114V29.8656ZM53.3048 27.4432V26.4451C53.211 25.9517 52.9765 25.518 52.6012 25.1442C52.1021 24.647 51.4999 24.3984 50.7944 24.3984C50.089 24.3984 49.4867 24.647 48.9877 25.1442C48.4886 25.6414 48.239 26.2413 48.239 26.9441C48.239 27.647 48.4886 28.2469 48.9877 28.7441C49.4867 29.2375 50.089 29.4843 50.7944 29.4843C51.4999 29.4843 52.1021 29.2357 52.6012 28.7385C52.9765 28.3647 53.211 27.9329 53.3048 27.4432ZM57.0197 27.0339C56.5882 26.8021 56.2898 26.6039 56.1248 26.4395C55.8658 26.1815 55.7364 25.8713 55.7364 25.5087C55.7364 25.1423 55.8658 24.8302 56.1248 24.5722C56.3836 24.3105 56.6951 24.1797 57.0591 24.1797C57.4269 24.1797 57.7307 24.2993 57.9709 24.5386C58.2036 24.7741 58.3199 25.0413 58.3199 25.3404V25.3685L57.8809 25.5423C57.8434 25.2582 57.7533 25.0451 57.6107 24.903C57.4719 24.761 57.288 24.69 57.0591 24.69C56.8339 24.69 56.6407 24.7703 56.4794 24.9311C56.318 25.0881 56.2373 25.2806 56.2373 25.5087C56.2373 25.733 56.318 25.9255 56.4794 26.0862C56.5732 26.1797 56.772 26.3217 57.076 26.5124C57.5562 26.774 57.8978 27.0058 58.1004 27.2077C58.4194 27.5292 58.5788 27.9123 58.5788 28.3572C58.5788 28.8133 58.4194 29.202 58.1004 29.5235C57.7814 29.8412 57.3949 30.0001 56.9409 30.0001C56.4869 30.0001 56.1003 29.8412 55.7814 29.5235C55.4624 29.202 55.3029 28.8506 55.3029 28.4693L55.8039 28.3404C55.8039 28.6693 55.9146 28.9441 56.136 29.1646C56.3612 29.3852 56.6294 29.4955 56.9409 29.4955C57.2524 29.4955 57.5188 29.3852 57.7402 29.1646C57.9653 28.9441 58.0779 28.6749 58.0779 28.3572C58.0779 28.0469 57.9672 27.7815 57.7458 27.561C57.6257 27.4413 57.3837 27.2656 57.0197 27.0339ZM62.7102 24.3591L61.3481 26.0414L63.5207 29.8656H62.8903L61.016 26.4451L60.5207 27.0563V29.8656H60.0141V22.0153H60.5207V26.2488L62.0573 24.3591H62.7102ZM65.502 28.8338C65.9785 29.2675 66.5452 29.4843 67.2019 29.4843C67.9073 29.4843 68.5096 29.2357 69.0086 28.7385C69.0724 28.6749 69.1324 28.6095 69.1887 28.5422L69.7235 28.7329C69.6258 28.8675 69.5152 28.9965 69.3913 29.1198C68.7872 29.7217 68.0574 30.0226 67.2019 30.0226C66.3501 30.0226 65.6221 29.7217 65.0179 29.1198C64.4138 28.5179 64.1117 27.7909 64.1117 26.9386C64.1117 26.09 64.4138 25.3648 65.0179 24.7629C65.6221 24.161 66.3501 23.8601 67.2019 23.8601C67.9336 23.8601 68.5733 24.0788 69.1212 24.5162C69.2112 24.5909 69.3013 24.6731 69.3913 24.7629C69.4251 24.7965 69.457 24.8302 69.487 24.8638L69.1043 25.2451L65.502 28.8338ZM68.7328 24.903C68.2938 24.5666 67.7835 24.3984 67.2019 24.3984C66.5001 24.3984 65.8998 24.647 65.4007 25.1442C64.9016 25.6376 64.6521 26.2357 64.6521 26.9386C64.6521 27.518 64.8209 28.0264 65.1586 28.4638L68.7328 24.903ZM71.8679 24.3591V22.0153H72.3745V24.3591H73.5004V24.8638H72.3745V29.8656H71.8679V24.8638H70.7422V24.3591H71.8679ZM76.3707 27.0339C75.9392 26.8021 75.6409 26.6039 75.4759 26.4395C75.2173 26.1815 75.0876 25.8713 75.0876 25.5087C75.0876 25.1423 75.2173 24.8302 75.4759 24.5722C75.7346 24.3105 76.0465 24.1797 76.4104 24.1797C76.7778 24.1797 77.0818 24.2993 77.3217 24.5386C77.5545 24.7741 77.6712 25.0413 77.6712 25.3404V25.3685L77.2317 25.5423C77.1942 25.2582 77.1042 25.0451 76.9615 24.903C76.8232 24.761 76.6395 24.69 76.4104 24.69C76.1849 24.69 75.9918 24.7703 75.8304 24.9311C75.669 25.0881 75.5883 25.2806 75.5883 25.5087C75.5883 25.733 75.669 25.9255 75.8304 26.0862C75.924 26.1797 76.1229 26.3217 76.4269 26.5124C76.9075 26.774 77.249 27.0058 77.4514 27.2077C77.7706 27.5292 77.9298 27.9123 77.9298 28.3572C77.9298 28.8133 77.7706 29.202 77.4514 29.5235C77.1323 29.8412 76.7461 30.0001 76.2922 30.0001C75.8383 30.0001 75.4514 29.8412 75.1323 29.5235C74.8138 29.202 74.6539 28.8506 74.6539 28.4693L75.1553 28.3404C75.1553 28.6693 75.2655 28.9441 75.4874 29.1646C75.7122 29.3852 75.9802 29.4955 76.2922 29.4955C76.6034 29.4955 76.87 29.3852 77.0912 29.1646C77.3167 28.9441 77.4291 28.6749 77.4291 28.3572C77.4291 28.0469 77.3181 27.7815 77.097 27.561C76.9766 27.4413 76.7346 27.2656 76.3707 27.0339Z" fill="#332F2C"/>
<path d="M20.7133 67.6869H20.2067V66.5654C20.1092 66.6962 20.0022 66.8215 19.8859 66.9411C19.2817 67.543 18.5519 67.8439 17.6963 67.8439C16.8445 67.8439 16.1166 67.543 15.5124 66.9411C14.9083 66.3392 14.6062 65.614 14.6062 64.7654C14.6062 63.9131 14.9083 63.186 15.5124 62.5841C16.1166 61.9823 16.8445 61.6814 17.6963 61.6814C18.5519 61.6814 19.2817 61.9823 19.8859 62.5841C20.0022 62.7038 20.1092 62.829 20.2067 62.9599V62.1804H20.7133V67.6869ZM20.2067 65.2645V64.2664C20.1129 63.7729 19.8783 63.3393 19.5031 62.9655C19.004 62.4683 18.4018 62.2197 17.6963 62.2197C16.9909 62.2197 16.3886 62.4683 15.8896 62.9655C15.3905 63.4627 15.1409 64.0626 15.1409 64.7654C15.1409 65.4683 15.3905 66.0682 15.8896 66.5654C16.3886 67.0588 16.9909 67.3056 17.6963 67.3056C18.4018 67.3056 19.004 67.057 19.5031 66.5598C19.8783 66.186 20.1129 65.7542 20.2067 65.2645ZM23.2236 62.1804V59.8366H23.7302V62.1804H24.8559V62.6851H23.7302V67.6869H23.2236V62.6851H22.0979V62.1804H23.2236ZM27.2593 66.6551C27.7359 67.0888 28.3025 67.3056 28.9592 67.3056C29.6646 67.3056 30.2669 67.057 30.7659 66.5598C30.8298 66.4962 30.8898 66.4308 30.946 66.3635L31.4808 66.5542C31.3832 66.6888 31.2725 66.8177 31.1487 66.9411C30.5445 67.543 29.8147 67.8439 28.9592 67.8439C28.1074 67.8439 27.3794 67.543 26.7753 66.9411C26.1711 66.3392 25.869 65.6122 25.869 64.7598C25.869 63.9113 26.1711 63.186 26.7753 62.5841C27.3794 61.9823 28.1074 61.6814 28.9592 61.6814C29.6909 61.6814 30.3307 61.9001 30.8785 62.3375C30.9686 62.4122 31.0587 62.4944 31.1487 62.5841C31.1824 62.6178 31.2143 62.6515 31.2444 62.6851L30.8616 63.0664L27.2593 66.6551ZM30.4901 62.7243C30.0511 62.3879 29.5408 62.2197 28.9592 62.2197C28.2575 62.2197 27.6571 62.4683 27.158 62.9655C26.6589 63.4589 26.4094 64.057 26.4094 64.7598C26.4094 65.3393 26.5782 65.8476 26.916 66.285L30.4901 62.7243ZM33.3438 58.7151V67.6869H32.8373V58.7151H33.3438ZM35.6516 62.1804V67.6869H35.145V62.1804H35.6516ZM35.3983 60.2291C35.5371 60.2291 35.6553 60.2777 35.7529 60.3749C35.8542 60.472 35.9048 60.5898 35.9048 60.7281C35.9048 60.8702 35.8542 60.9898 35.7529 61.087C35.6553 61.1842 35.5371 61.2328 35.3983 61.2328C35.2594 61.2328 35.1393 61.1842 35.038 61.087C34.9405 60.9898 34.8917 60.8702 34.8917 60.7281C34.8917 60.5898 34.9405 60.472 35.038 60.3749C35.1393 60.2777 35.2594 60.2291 35.3983 60.2291ZM38.5053 66.6551C38.9818 67.0888 39.5484 67.3056 40.2051 67.3056C40.9106 67.3056 41.5128 67.057 42.0119 66.5598C42.0757 66.4962 42.1357 66.4308 42.192 66.3635L42.7267 66.5542C42.6292 66.6888 42.5184 66.8177 42.3947 66.9411C41.7905 67.543 41.0607 67.8439 40.2051 67.8439C39.3533 67.8439 38.6254 67.543 38.0212 66.9411C37.4171 66.3392 37.115 65.6122 37.115 64.7598C37.115 63.9113 37.4171 63.186 38.0212 62.5841C38.6254 61.9823 39.3533 61.6814 40.2051 61.6814C40.9368 61.6814 41.5766 61.9001 42.1245 62.3375C42.2146 62.4122 42.3046 62.4944 42.3947 62.5841C42.4284 62.6178 42.4603 62.6515 42.4904 62.6851L42.1076 63.0664L38.5053 66.6551ZM41.7361 62.7243C41.297 62.3879 40.7867 62.2197 40.2051 62.2197C39.5034 62.2197 38.903 62.4683 38.404 62.9655C37.9049 63.4589 37.6553 64.057 37.6553 64.7598C37.6553 65.3393 37.8242 65.8476 38.162 66.285L41.7361 62.7243ZM44.0832 62.1804H44.5898V63.1842C44.6949 63.0346 44.8168 62.8907 44.9556 62.7524C45.4022 62.3075 45.8599 62.0739 46.329 62.0514V62.601C46.0101 62.6159 45.6798 62.7935 45.3384 63.1336C44.8581 63.6084 44.6086 64.1785 44.5898 64.844V67.6869H44.0832V62.1804Z" fill="#332F2C"/>
<path d="M107.641 0C109.488 0 111.063 0.650454 112.369 1.95136C113.69 3.25227 114.351 4.82233 114.351 6.66154C114.351 8.51572 113.398 10.2428 111.491 11.8427C113.172 12.1867 114.756 13.1736 116.242 14.8034C118.643 17.2109 119.844 20.1192 119.844 23.5284C119.844 26.9228 118.643 29.8611 116.242 32.3432C114.006 34.646 111.333 35.8198 108.227 35.8647V35.8871H101.247V0H107.641ZM103.274 13.3455V33.8684H108.227V33.8909C110.733 33.7264 112.895 32.7021 114.711 30.818C116.707 28.7695 117.705 26.3396 117.705 23.5284C117.705 20.7173 116.707 18.3173 114.711 16.3286C112.715 14.3399 110.305 13.3455 107.484 13.3455H103.274ZM103.274 2.01865V11.1923H108.159C109.285 11.0876 110.246 10.6689 111.041 9.93628C111.957 9.09889 112.414 8.00727 112.414 6.66154C112.414 5.31578 111.957 4.20925 111.041 3.34199C110.125 2.45976 108.992 2.01865 107.641 2.01865H103.274ZM149.113 35.8871H147.086V31.4012C146.697 31.9246 146.269 32.4255 145.803 32.904C143.387 35.3114 140.467 36.5151 137.045 36.5151C133.638 36.5151 130.726 35.3114 128.31 32.904C125.893 30.4966 124.684 27.5957 124.684 24.2014C124.684 20.7921 125.893 17.8838 128.31 15.4763C130.726 13.0689 133.638 11.8651 137.045 11.8651C140.467 11.8651 143.387 13.0689 145.803 15.4763C146.269 15.9548 146.697 16.4557 147.086 16.979V13.8614H149.113V35.8871ZM147.086 26.1976V22.2051C146.711 20.2313 145.773 18.4968 144.272 17.0015C142.276 15.0128 139.867 14.0184 137.045 14.0184C134.223 14.0184 131.814 15.0128 129.818 17.0015C127.822 18.9902 126.823 21.3902 126.823 24.2014C126.823 27.0125 127.822 29.4125 129.818 31.4012C131.814 33.375 134.223 34.3619 137.045 34.3619C139.867 34.3619 142.276 33.3675 144.272 31.3788C145.773 29.8835 146.711 28.1564 147.086 26.1976ZM161.946 24.5603C160.22 23.6332 159.027 22.8406 158.366 22.1827C157.331 21.151 156.813 19.9099 156.813 18.4595C156.813 16.994 157.331 15.7455 158.366 14.7137C159.402 13.667 160.648 13.1436 162.104 13.1436C163.575 13.1436 164.79 13.6222 165.751 14.5791C166.681 15.5212 167.147 16.5903 167.147 17.7865V17.8987L165.39 18.594C165.241 17.4576 164.88 16.6052 164.31 16.0371C163.755 15.4688 163.019 15.1847 162.104 15.1847C161.203 15.1847 160.43 15.5062 159.784 16.1492C159.139 16.7772 158.817 17.5473 158.817 18.4595C158.817 19.3566 159.139 20.1267 159.784 20.7697C160.16 21.1435 160.955 21.7117 162.171 22.4743C164.092 23.521 165.458 24.4481 166.269 25.2555C167.545 26.5415 168.183 28.0742 168.183 29.8536C168.183 31.6778 167.545 33.233 166.269 34.5189C164.993 35.7899 163.447 36.4254 161.631 36.4254C159.815 36.4254 158.269 35.7899 156.993 34.5189C155.717 33.233 155.079 31.8274 155.079 30.3022L157.083 29.7863C157.083 31.1021 157.526 32.2012 158.411 33.0835C159.312 33.9656 160.385 34.4068 161.631 34.4068C162.877 34.4068 163.942 33.9656 164.828 33.0835C165.728 32.2012 166.179 31.1246 166.179 29.8536C166.179 28.6125 165.736 27.5508 164.85 26.6686C164.37 26.1901 163.402 25.4873 161.946 24.5603ZM184.708 13.8614L179.259 20.5902L187.95 35.8871H185.429L177.931 22.2051L175.95 24.65V35.8871H173.924V4.48589H175.95V21.4201L182.096 13.8614H184.708ZM195.875 31.7601C197.782 33.4946 200.048 34.3619 202.674 34.3619C205.496 34.3619 207.906 33.3675 209.902 31.3788C210.157 31.1246 210.397 30.8629 210.622 30.5937L212.761 31.3563C212.371 31.8947 211.928 32.4105 211.433 32.904C209.016 35.3114 206.096 36.5151 202.674 36.5151C199.267 36.5151 196.356 35.3114 193.939 32.904C191.522 30.4966 190.314 27.5882 190.314 24.1789C190.314 20.7846 191.522 17.8838 193.939 15.4763C196.356 13.0689 199.267 11.8651 202.674 11.8651C205.601 11.8651 208.161 12.7399 210.352 14.4894C210.712 14.7885 211.073 15.1174 211.433 15.4763C211.568 15.6109 211.695 15.7455 211.815 15.88L210.284 17.4052L195.875 31.7601ZM208.798 16.0371C207.042 14.6913 205.001 14.0184 202.674 14.0184C199.868 14.0184 197.466 15.0128 195.47 17.0015C193.474 18.9753 192.475 21.3678 192.475 24.1789C192.475 26.4967 193.151 28.5302 194.502 30.2797L208.798 16.0371ZM221.339 13.8614V4.48589H223.365V13.8614H227.868V15.88H223.365V35.8871H221.339V15.88H216.836V13.8614H221.339ZM239.351 24.5603C237.625 23.6332 236.431 22.8406 235.771 22.1827C234.735 21.151 234.217 19.9099 234.217 18.4595C234.217 16.994 234.735 15.7455 235.771 14.7137C236.807 13.667 238.052 13.1436 239.509 13.1436C240.979 13.1436 242.195 13.6222 243.156 14.5791C244.086 15.5212 244.552 16.5903 244.552 17.7865V17.8987L242.795 18.594C242.645 17.4576 242.285 16.6052 241.715 16.0371C241.159 15.4688 240.424 15.1847 239.509 15.1847C238.608 15.1847 237.835 15.5062 237.189 16.1492C236.544 16.7772 236.221 17.5473 236.221 18.4595C236.221 19.3566 236.544 20.1267 237.189 20.7697C237.565 21.1435 238.36 21.7117 239.576 22.4743C241.497 23.521 242.863 24.4481 243.674 25.2555C244.949 26.5415 245.587 28.0742 245.587 29.8536C245.587 31.6778 244.949 33.233 243.674 34.5189C242.398 35.7899 240.851 36.4254 239.035 36.4254C237.219 36.4254 235.674 35.7899 234.398 34.5189C233.122 33.233 232.484 31.8274 232.484 30.3022L234.488 29.7863C234.488 31.1021 234.93 32.2012 235.815 33.0835C236.716 33.9656 237.79 34.4068 239.035 34.4068C240.281 34.4068 241.347 33.9656 242.233 33.0835C243.133 32.2012 243.583 31.1246 243.583 29.8536C243.583 28.6125 243.14 27.5508 242.255 26.6686C241.774 26.1901 240.807 25.4873 239.351 24.5603ZM115.949 73.2319L110.455 58.182L104.962 73.2319H115.949ZM116.692 75.2509H104.219L99.1987 89H97.0374L110.455 52.2831L123.851 89H121.713L116.692 75.2509ZM135.604 55.1315V89H133.578V55.1315H124.46V53.1129H144.723V55.1315H135.604ZM167.237 53.1129V55.1315H151.252V70.0472H167.237V72.0656H151.252V86.9817H167.237V89H149.225V53.1129H167.237ZM173.451 89V53.1129H175.477V86.9817H189.436V89H173.451ZM197.316 53.1129V89H195.29V53.1129H197.316ZM222.532 53.1129V55.1315H206.547V70.0472H222.532V72.0656H206.547V86.9817H222.532V89H204.521V53.1129H222.532ZM230.772 55.154V74.5102H236.896C239.568 74.5102 241.85 73.5685 243.741 71.6845C245.647 69.7855 246.6 67.4977 246.6 64.8211C246.6 62.1445 245.647 59.8641 243.741 57.98C241.85 56.096 239.568 55.154 236.896 55.154H230.772ZM237.504 76.5292C237.309 76.5443 237.107 76.5515 236.896 76.5515H230.772V89H228.746V53.1129H238.202C240.949 53.4867 243.283 54.6306 245.204 56.5446C247.501 58.8324 248.649 61.5912 248.649 64.8211C248.649 68.0658 247.501 70.8322 245.204 73.12C243.613 74.7047 241.79 75.744 239.733 76.2378L248.041 89H245.542L237.504 76.5292Z" fill="#332F2C"/>
</svg>
